<svg class="vector35" width="35" height="40" viewBox="0 0 35 40" fill="none" xmlns="http://www.w3.org/2000/svg">
                  <path d="M34.3711 29.3476C33.4336 31.4298 32.9818 32.3605 31.776 34.1981C30.0878 36.766 27.7067 39.9725 24.7652 39.9929C22.1463 40.0167 21.4704 38.2843 17.914 38.3149C14.3611 38.3319 13.6206 40.0269 10.9983 39.9997C8.05337 39.9725 5.80135 37.0853 4.11319 34.5208C-0.608241 27.3299 -1.10756 18.8993 1.81022 14.4156C3.87542 11.2363 7.13966 9.36813 10.2069 9.36813C13.3319 9.36813 15.2952 11.0835 17.8767 11.0835C20.3834 11.0835 21.9086 9.36473 25.5227 9.36473C28.2536 9.36473 31.1408 10.8525 33.206 13.4204C26.4534 17.1228 27.5505 26.7661 34.3711 29.3476ZM22.7781 6.49451C24.0926 4.80635 25.0913 2.42525 24.7278 0C22.5845 0.146059 20.0777 1.51493 18.6138 3.28802C17.2856 4.90485 16.1851 7.30293 16.6131 9.62288C18.9534 9.69761 21.3753 8.30156 22.7781 6.49451Z" fill="#F0F0F0" />
                </svg>