<svg class="frame-22" width="405" height="24" viewBox="0 0 405 24" fill="none" xmlns="http://www.w3.org/2000/svg">
            <path d="M21.1429 0.117065H2.85714C1.28 0.117065 0 1.39707 0 2.97421V21.2599C0 22.8371 1.28 24.1171 2.85714 24.1171H21.1429C22.72 24.1171 24 22.8371 24 21.2599V2.97421C24 1.39707 22.72 0.117065 21.1429 0.117065ZM18.8571 8.68849H17.7143C16.4914 8.68849 16 8.97421 16 9.83135V11.5456H18.8571L18.2857 14.4028H16V22.9742H13.1429V14.4028H10.8571V11.5456H13.1429V9.83135C13.1429 7.54564 14.2857 5.83135 16.5714 5.83135C18.2286 5.83135 18.8571 6.40278 18.8571 6.40278V8.68849Z" fill="white"></path>
            <path d="M50.998 0.117065C47.139 0.117065 44 3.25902 44 7.11902V17.119C44 20.978 47.142 24.1171 51.002 24.1171H61.002C64.861 24.1171 68 20.9751 68 17.1151V7.11511C68 3.25611 64.858 0.117065 60.998 0.117065H50.998ZM63 4.11707C63.552 4.11707 64 4.56507 64 5.11707C64 5.66907 63.552 6.11707 63 6.11707C62.448 6.11707 62 5.66907 62 5.11707C62 4.56507 62.448 4.11707 63 4.11707ZM56 6.11707C59.309 6.11707 62 8.80807 62 12.1171C62 15.4261 59.309 18.1171 56 18.1171C52.691 18.1171 50 15.4261 50 12.1171C50 8.80807 52.691 6.11707 56 6.11707ZM56 8.11707C54.9391 8.11707 53.9217 8.53849 53.1716 9.28864C52.4214 10.0388 52 11.0562 52 12.1171C52 13.1779 52.4214 14.1953 53.1716 14.9455C53.9217 15.6956 54.9391 16.1171 56 16.1171C57.0609 16.1171 58.0783 15.6956 58.8284 14.9455C59.5786 14.1953 60 13.1779 60 12.1171C60 11.0562 59.5786 10.0388 58.8284 9.28864C58.0783 8.53849 57.0609 8.11707 56 8.11707V8.11707Z" fill="white"></path>
            <path d="M117.533 2.95738C116.445 3.44074 115.278 3.76529 114.051 3.9126C115.303 3.16224 116.265 1.97455 116.716 0.561297C115.547 1.25411 114.246 1.75819 112.868 2.02979C111.763 0.851313 110.189 0.117065 108.446 0.117065C105.099 0.117065 102.386 2.82849 102.386 6.17518C102.386 6.64934 102.441 7.11198 102.545 7.55621C97.5084 7.30302 93.0454 4.89083 90.0554 1.22419C89.5329 2.12186 89.236 3.16224 89.236 4.27166C89.236 6.37313 90.304 8.22832 91.9313 9.31703C90.937 9.2848 90.0025 9.0109 89.1854 8.55746C89.1854 8.58278 89.1854 8.6081 89.1854 8.63342C89.1854 11.5704 91.2753 14.0171 94.0443 14.5764C93.5379 14.7146 93.0016 14.7882 92.4492 14.7882C92.0579 14.7882 91.6781 14.7514 91.3076 14.6777C92.0809 17.083 94.3182 18.8392 96.9675 18.8876C94.8959 20.5126 92.2835 21.4793 89.4432 21.4793C88.9529 21.4793 88.4719 21.4517 88 21.3941C90.6792 23.1158 93.8648 24.1171 97.2874 24.1171C108.432 24.1171 114.527 14.8849 114.527 6.87951C114.527 6.61711 114.52 6.35242 114.511 6.09462C115.694 5.24069 116.721 4.17269 117.533 2.95738Z" fill="white"></path>
            <path d="M165.098 2.77855C162.329 0.517584 157.949 0.134324 157.761 0.120537C157.471 0.0957214 157.194 0.261158 157.074 0.534128C157.063 0.550671 156.968 0.774011 156.862 1.12143C158.694 1.43576 160.944 2.06717 162.979 3.3493C163.305 3.55334 163.405 3.98899 163.204 4.31986C163.071 4.53769 162.846 4.65625 162.612 4.65625C162.487 4.65625 162.359 4.6204 162.245 4.54871C158.745 2.34565 154.376 2.23536 153.533 2.23536C152.691 2.23536 148.319 2.34565 144.821 4.54871C144.495 4.75551 144.066 4.65349 143.865 4.32262C143.661 3.98899 143.761 3.5561 144.088 3.3493C146.123 2.06993 148.373 1.43576 150.204 1.12418C150.098 0.774011 150.003 0.553429 149.995 0.534128C149.873 0.261158 149.598 0.0902072 149.305 0.120537C149.117 0.134324 144.737 0.517584 141.93 2.80888C140.465 4.18475 137.533 12.225 137.533 19.176C137.533 19.3001 137.566 19.4187 137.626 19.5262C139.647 23.1327 145.166 24.0757 146.425 24.1171C146.43 24.1171 146.438 24.1171 146.446 24.1171C146.669 24.1171 146.878 24.0095 147.009 23.8276L148.28 22.0519C144.848 21.153 143.096 19.6255 142.995 19.5345C142.707 19.2781 142.68 18.8314 142.935 18.5391C143.188 18.2468 143.628 18.2193 143.916 18.4757C143.957 18.5143 147.185 21.2936 153.533 21.2936C159.892 21.2936 163.12 18.5033 163.153 18.4757C163.441 18.222 163.878 18.2468 164.134 18.5419C164.386 18.8341 164.359 19.2781 164.071 19.5345C163.971 19.6255 162.218 21.153 158.786 22.0519L160.058 23.8276C160.188 24.0095 160.397 24.1171 160.62 24.1171C160.628 24.1171 160.636 24.1171 160.642 24.1171C161.9 24.0757 167.419 23.1327 169.441 19.5262C169.501 19.4187 169.533 19.3001 169.533 19.176C169.533 12.225 166.601 4.18475 165.098 2.77855ZM149.011 16.3526C147.666 16.3526 146.577 15.0898 146.577 13.5291C146.577 11.9685 147.666 10.7057 149.011 10.7057C150.357 10.7057 151.446 11.9685 151.446 13.5291C151.446 15.0898 150.357 16.3526 149.011 16.3526ZM158.055 16.3526C156.71 16.3526 155.62 15.0898 155.62 13.5291C155.62 11.9685 156.71 10.7057 158.055 10.7057C159.4 10.7057 160.49 11.9685 160.49 13.5291C160.49 15.0898 159.4 16.3526 158.055 16.3526Z" fill="white"></path>
            <path d="M220.957 4.24207C220.658 2.59265 219.234 1.39148 217.582 1.01648C215.109 0.492065 210.533 0.117065 205.582 0.117065C200.634 0.117065 195.984 0.492065 193.509 1.01648C191.859 1.39148 190.433 2.51648 190.134 4.24207C189.832 6.11707 189.533 8.74207 189.533 12.1171C189.533 15.4921 189.832 18.1171 190.207 19.9921C190.509 21.6415 191.933 22.8427 193.582 23.2177C196.207 23.7421 200.707 24.1171 205.658 24.1171C210.609 24.1171 215.109 23.7421 217.734 23.2177C219.384 22.8427 220.808 21.7177 221.109 19.9921C221.408 18.1171 221.783 15.4159 221.859 12.1171C221.707 8.74207 221.332 6.11707 220.957 4.24207ZM201.533 17.3671V6.86707L210.683 12.1171L201.533 17.3671Z" fill="white"></path>
            <path d="M267.742 0.446995C267.292 0.0653941 266.585 0.010794 265.855 0.304195H265.853C265.085 0.612596 244.097 9.61502 243.242 9.98282C243.087 10.0368 241.73 10.5432 241.869 11.6712C241.994 12.6882 243.085 13.1094 243.218 13.158L248.554 14.985C248.908 16.1634 250.213 20.5111 250.502 21.4399C250.682 22.0189 250.975 22.7797 251.489 22.9363C251.94 23.1103 252.389 22.9513 252.68 22.7233L255.942 19.6975L261.208 23.8045L261.334 23.8795C261.691 24.0379 262.034 24.1171 262.361 24.1171C262.613 24.1171 262.856 24.0697 263.087 23.9749C263.876 23.6509 264.192 22.8991 264.225 22.8139L268.159 2.3676C268.399 1.2756 268.065 0.719996 267.742 0.446995ZM253.26 15.7158L251.46 20.5159L249.66 14.5158L263.46 4.31581L253.26 15.7158Z" fill="white"></path>
            <path d="M300.24 0.117065C297.058 0.117065 294.005 1.38135 291.755 3.63178C289.505 5.88222 288.24 8.93447 288.24 12.1171C288.24 15.2997 289.505 18.3519 291.755 20.6023C294.005 22.8528 297.058 24.1171 300.24 24.1171C303.423 24.1171 306.475 22.8528 308.726 20.6023C310.976 18.3519 312.24 15.2997 312.24 12.1171C312.24 8.93447 310.976 5.88222 308.726 3.63178C306.475 1.38135 303.423 0.117065 300.24 0.117065V0.117065ZM319.163 1.04014C315.849 1.04014 313.163 5.99983 313.163 12.1171C313.163 13.2645 313.257 14.3703 313.433 15.4106C313.666 16.798 314.044 18.0681 314.533 19.1629C314.778 19.7103 315.05 20.2134 315.346 20.6648C315.939 21.5675 316.628 22.2644 317.379 22.6964C317.943 23.0195 318.542 23.194 319.163 23.194C319.785 23.194 320.384 23.0195 320.948 22.6964C321.699 22.2644 322.388 21.5675 322.98 20.6648C323.277 20.2134 323.549 19.7103 323.793 19.1629C324.283 18.0691 324.66 16.798 324.894 15.4106C325.069 14.3703 325.163 13.2645 325.163 12.1171C325.163 5.99983 322.477 1.04014 319.163 1.04014ZM328.394 1.96322C328.155 1.96322 327.924 2.12291 327.708 2.42014C327.563 2.61768 327.425 2.87614 327.295 3.18907C327.229 3.34507 327.165 3.51491 327.105 3.69768C326.982 4.0623 326.867 4.4786 326.763 4.93737C326.554 5.85583 326.385 6.9506 326.268 8.16537C326.21 8.77276 326.165 9.4106 326.133 10.0715C326.102 10.7315 326.086 11.4165 326.086 12.1171C326.086 12.8177 326.102 13.5026 326.133 14.1635C326.164 14.8244 326.209 15.4623 326.268 16.0697C326.385 17.2844 326.554 18.3783 326.763 19.2977C326.867 19.7574 326.982 20.1728 327.105 20.5374C327.165 20.7201 327.229 20.89 327.295 21.046C327.426 21.3589 327.564 21.6174 327.708 21.8149C327.924 22.1112 328.155 22.2709 328.394 22.2709C329.669 22.2709 330.702 17.7248 330.702 12.1171C330.702 6.50937 329.669 1.96322 328.394 1.96322Z" fill="white"></path>
            <path d="M366.153 0.117065C364.95 0.117065 363.544 1.06126 363.332 5.27778C363.51 5.27332 363.687 5.25992 363.867 5.25992C364.068 5.25992 364.276 5.27108 364.475 5.27778C364.611 2.7443 365.213 1.25992 366.153 1.25992C366.555 1.25992 366.783 1.47867 367.207 1.93849C367.702 2.47644 368.35 3.1751 369.617 3.43849C369.597 3.28894 369.582 3.12823 369.582 2.97421C369.582 2.73314 369.606 2.50546 369.653 2.27778C368.867 2.06349 368.452 1.61037 368.046 1.17064C367.593 0.679565 367.073 0.117065 366.153 0.117065ZM373.01 0.688494C371.749 0.688494 370.725 1.71528 370.725 2.97421C370.725 4.23314 371.749 5.25992 373.01 5.25992C374.272 5.25992 375.296 4.23314 375.296 2.97421C375.296 1.71528 374.272 0.688494 373.01 0.688494ZM363.867 6.40278C356.934 6.40278 351.296 9.93403 351.296 14.9742C351.296 20.0144 356.934 24.1171 363.867 24.1171C370.801 24.1171 376.439 20.0144 376.439 14.9742C376.439 9.93403 370.801 6.40278 363.867 6.40278ZM353.867 6.93849C353.033 6.93849 352.24 7.28001 351.635 7.88492C350.651 8.8693 350.448 10.2845 351.01 11.4564C351.874 9.78448 353.361 8.35814 355.278 7.29564C354.843 7.07465 354.361 6.93849 353.867 6.93849ZM373.867 6.93849C373.374 6.93849 372.892 7.07465 372.457 7.29564C374.374 8.35814 375.861 9.78448 376.725 11.4564C377.287 10.2845 377.084 8.8693 376.1 7.88492C375.495 7.28001 374.702 6.93849 373.867 6.93849ZM359.296 11.5456C360.242 11.5456 361.01 12.3135 361.01 13.2599C361.01 14.2064 360.242 14.9742 359.296 14.9742C358.35 14.9742 357.582 14.2064 357.582 13.2599C357.582 12.3135 358.35 11.5456 359.296 11.5456ZM368.439 11.5456C369.385 11.5456 370.153 12.3135 370.153 13.2599C370.153 14.2064 369.385 14.9742 368.439 14.9742C367.492 14.9742 366.725 14.2064 366.725 13.2599C366.725 12.3135 367.492 11.5456 368.439 11.5456ZM358.76 17.8314C358.903 17.8559 359.044 17.9363 359.135 18.0635C359.196 18.1483 360.535 19.9385 363.867 19.9385C367.245 19.9385 368.586 18.0992 368.6 18.0814C368.78 17.8247 369.144 17.7555 369.403 17.9385C369.66 18.1193 369.709 18.4653 369.528 18.7242C369.461 18.8202 367.832 21.0814 363.867 21.0814C359.901 21.0814 358.274 18.8202 358.207 18.7242C358.026 18.4653 358.073 18.1193 358.332 17.9385C358.461 17.847 358.617 17.8068 358.76 17.8314Z" fill="white"></path>
          </svg>