<svg class="group-113" width="36" height="40" viewBox="0 0 36 40" fill="none" xmlns="http://www.w3.org/2000/svg">
                <path fill-rule="evenodd" clip-rule="evenodd" d="M0.708 0.607882C0.258 1.09088 0 1.83488 0 2.80188V37.1859C0 38.1529 0.258 38.8969 0.725 39.3629L0.847 39.4659L20.113 20.1999V19.7669L0.83 0.504883L0.708 0.607882Z" fill="url(#paint0_linear_2_186)" />
                <path fill-rule="evenodd" clip-rule="evenodd" d="M26.5217 26.6468L20.0957 20.2188V19.7688L26.5237 13.3408L26.6627 13.4268L34.2657 17.7478C36.4427 18.9748 36.4427 20.9968 34.2657 22.2408L26.6627 26.5618C26.6607 26.5608 26.5217 26.6468 26.5217 26.6468Z" fill="url(#paint1_linear_2_186)" />
                <path fill-rule="evenodd" clip-rule="evenodd" d="M26.66 26.5611L20.095 19.9941L0.707031 39.3821C1.41503 40.1431 2.60703 40.2291 3.93903 39.4851L26.66 26.5611Z" fill="url(#paint2_linear_2_186)" />
                <path fill-rule="evenodd" clip-rule="evenodd" d="M26.66 13.4289L3.93903 0.521856C2.60903 -0.239144 1.41503 -0.136144 0.707031 0.624856L20.093 19.9939L26.66 13.4289Z" fill="url(#paint3_linear_2_186)" />
                <defs>
                  <linearGradient id="paint0_linear_2_186" x1="31.591" y1="-10.7938" x2="-9.98572" y2="0.29221" gradientUnits="userSpaceOnUse">
                    <stop stop-color="#047ED6" />
                    <stop offset="1" stop-color="#50E6FF" />
                  </linearGradient>
                  <linearGradient id="paint1_linear_2_186" x1="37.1012" y1="19.9923" x2="15.5464" y2="19.9923" gradientUnits="userSpaceOnUse">
                    <stop stop-color="#FFDA1C" />
                    <stop offset="1" stop-color="#FEB705" />
                  </linearGradient>
                  <linearGradient id="paint2_linear_2_186" x1="23.0846" y1="23.5627" x2="-1.68667" y2="65.2615" gradientUnits="userSpaceOnUse">
                    <stop stop-color="#D9414F" />
                    <stop offset="1" stop-color="#8C193F" />
                  </linearGradient>
                  <linearGradient id="paint3_linear_2_186" x1="-4.17671" y1="-10.8335" x2="6.87388" y2="7.79165" gradientUnits="userSpaceOnUse">
                    <stop stop-color="#33C481" />
                    <stop offset="1" stop-color="#61E3A7" />
                  </linearGradient>
                </defs>
              </svg>