<svg class="frame-22" width="22" height="22" viewBox="0 0 22 22" fill="none" xmlns="http://www.w3.org/2000/svg">
      <path d="M165.098 2.77867C162.329 0.517706 157.949 0.134446 157.761 0.120659C157.471 0.0958435 157.194 0.26128 157.074 0.53425C157.063 0.550793 156.968 0.774133 156.862 1.12155C158.694 1.43588 160.944 2.06729 162.979 3.34942C163.305 3.55346 163.405 3.98911 163.204 4.31998C163.071 4.53781 162.846 4.65637 162.612 4.65637C162.487 4.65637 162.359 4.62053 162.245 4.54884C158.745 2.34578 154.376 2.23549 153.533 2.23549C152.691 2.23549 148.319 2.34578 144.821 4.54884C144.495 4.75563 144.066 4.65361 143.865 4.32274C143.661 3.98911 143.761 3.55622 144.088 3.34942C146.123 2.07005 148.373 1.43588 150.204 1.12431C150.098 0.774133 150.003 0.553551 149.995 0.53425C149.873 0.26128 149.598 0.0903293 149.305 0.120659C149.117 0.134446 144.737 0.517706 141.93 2.809C140.465 4.18488 137.533 12.2251 137.533 19.1762C137.533 19.3002 137.566 19.4188 137.626 19.5263C139.647 23.1328 145.166 24.0758 146.425 24.1172C146.43 24.1172 146.438 24.1172 146.446 24.1172C146.669 24.1172 146.878 24.0097 147.009 23.8277L148.28 22.052C144.848 21.1531 143.096 19.6256 142.995 19.5346C142.707 19.2782 142.68 18.8315 142.935 18.5392C143.188 18.247 143.628 18.2194 143.916 18.4758C143.957 18.5144 147.185 21.2937 153.533 21.2937C159.892 21.2937 163.12 18.5034 163.153 18.4758C163.441 18.2221 163.878 18.247 164.134 18.542C164.386 18.8343 164.359 19.2782 164.071 19.5346C163.971 19.6256 162.218 21.1531 158.786 22.052L160.058 23.8277C160.188 24.0097 160.397 24.1172 160.62 24.1172C160.628 24.1172 160.636 24.1172 160.642 24.1172C161.9 24.0758 167.419 23.1328 169.441 19.5263C169.501 19.4188 169.533 19.3002 169.533 19.1762C169.533 12.2251 166.601 4.18488 165.098 2.77867ZM149.011 16.3527C147.666 16.3527 146.577 15.0899 146.577 13.5293C146.577 11.9687 147.666 10.7058 149.011 10.7058C150.357 10.7058 151.446 11.9687 151.446 13.5293C151.446 15.0899 150.357 16.3527 149.011 16.3527ZM158.055 16.3527C156.71 16.3527 155.62 15.0899 155.62 13.5293C155.62 11.9687 156.71 10.7058 158.055 10.7058C159.4 10.7058 160.49 11.9687 160.49 13.5293C160.49 15.0899 159.4 16.3527 158.055 16.3527Z" fill="white"></path>
    </svg>