<svg class="frame-22" width="22" height="22" viewBox="0 0 22 22" fill="none" xmlns="http://www.w3.org/2000/svg">
      <path d="M21.1429 0.117188H2.85714C1.28 0.117188 0 1.39719 0 2.97433V21.26C0 22.8372 1.28 24.1172 2.85714 24.1172H21.1429C22.72 24.1172 24 22.8372 24 21.26V2.97433C24 1.39719 22.72 0.117188 21.1429 0.117188ZM18.8571 8.68862H17.7143C16.4914 8.68862 16 8.97433 16 9.83147V11.5458H18.8571L18.2857 14.4029H16V22.9743H13.1429V14.4029H10.8571V11.5458H13.1429V9.83147C13.1429 7.54576 14.2857 5.83147 16.5714 5.83147C18.2286 5.83147 18.8571 6.4029 18.8571 6.4029V8.68862Z" fill="white"></path>
      <!-- <path d="M50.998 0.117188C47.139 0.117188 44 3.25914 44 7.11914V17.1191C44 20.9781 47.142 24.1172 51.002 24.1172H61.002C64.861 24.1172 68 20.9752 68 17.1152V7.11523C68 3.25623 64.858 0.117188 60.998 0.117188H50.998ZM63 4.11719C63.552 4.11719 64 4.56519 64 5.11719C64 5.66919 63.552 6.11719 63 6.11719C62.448 6.11719 62 5.66919 62 5.11719C62 4.56519 62.448 4.11719 63 4.11719ZM56 6.11719C59.309 6.11719 62 8.80819 62 12.1172C62 15.4262 59.309 18.1172 56 18.1172C52.691 18.1172 50 15.4262 50 12.1172C50 8.80819 52.691 6.11719 56 6.11719ZM56 8.11719C54.9391 8.11719 53.9217 8.53861 53.1716 9.28876C52.4214 10.0389 52 11.0563 52 12.1172C52 13.1781 52.4214 14.1955 53.1716 14.9456C53.9217 15.6958 54.9391 16.1172 56 16.1172C57.0609 16.1172 58.0783 15.6958 58.8284 14.9456C59.5786 14.1955 60 13.1781 60 12.1172C60 11.0563 59.5786 10.0389 58.8284 9.28876C58.0783 8.53861 57.0609 8.11719 56 8.11719V8.11719Z" fill="white"></path>
      <path d="M117.533 2.95751C116.445 3.44087 115.278 3.76541 114.051 3.91272C115.303 3.16236 116.265 1.97467 116.716 0.561419C115.547 1.25424 114.246 1.75831 112.868 2.02991C111.763 0.851435 110.189 0.117188 108.446 0.117188C105.099 0.117188 102.386 2.82861 102.386 6.17531C102.386 6.64946 102.441 7.1121 102.545 7.55634C97.5084 7.30315 93.0454 4.89095 90.0554 1.22431C89.5329 2.12198 89.236 3.16236 89.236 4.27179C89.236 6.37325 90.304 8.22844 91.9313 9.31715C90.937 9.28492 90.0025 9.01102 89.1854 8.55758C89.1854 8.5829 89.1854 8.60822 89.1854 8.63354C89.1854 11.5705 91.2753 14.0173 94.0443 14.5766C93.5379 14.7147 93.0016 14.7883 92.4492 14.7883C92.0579 14.7883 91.6781 14.7515 91.3076 14.6778C92.0809 17.0831 94.3182 18.8394 96.9675 18.8877C94.8959 20.5127 92.2835 21.4794 89.4432 21.4794C88.9529 21.4794 88.4719 21.4518 88 21.3943C90.6792 23.1159 93.8648 24.1172 97.2874 24.1172C108.432 24.1172 114.527 14.885 114.527 6.87963C114.527 6.61724 114.52 6.35254 114.511 6.09475C115.694 5.24081 116.721 4.17281 117.533 2.95751Z" fill="white"></path>
      <path d="M165.098 2.77867C162.329 0.517706 157.949 0.134446 157.761 0.120659C157.471 0.0958435 157.194 0.26128 157.074 0.53425C157.063 0.550793 156.968 0.774133 156.862 1.12155C158.694 1.43588 160.944 2.06729 162.979 3.34942C163.305 3.55346 163.405 3.98911 163.204 4.31998C163.071 4.53781 162.846 4.65637 162.612 4.65637C162.487 4.65637 162.359 4.62053 162.245 4.54884C158.745 2.34578 154.376 2.23549 153.533 2.23549C152.691 2.23549 148.319 2.34578 144.821 4.54884C144.495 4.75563 144.066 4.65361 143.865 4.32274C143.661 3.98911 143.761 3.55622 144.088 3.34942C146.123 2.07005 148.373 1.43588 150.204 1.12431C150.098 0.774133 150.003 0.553551 149.995 0.53425C149.873 0.26128 149.598 0.0903293 149.305 0.120659C149.117 0.134446 144.737 0.517706 141.93 2.809C140.465 4.18488 137.533 12.2251 137.533 19.1762C137.533 19.3002 137.566 19.4188 137.626 19.5263C139.647 23.1328 145.166 24.0758 146.425 24.1172C146.43 24.1172 146.438 24.1172 146.446 24.1172C146.669 24.1172 146.878 24.0097 147.009 23.8277L148.28 22.052C144.848 21.1531 143.096 19.6256 142.995 19.5346C142.707 19.2782 142.68 18.8315 142.935 18.5392C143.188 18.247 143.628 18.2194 143.916 18.4758C143.957 18.5144 147.185 21.2937 153.533 21.2937C159.892 21.2937 163.12 18.5034 163.153 18.4758C163.441 18.2221 163.878 18.247 164.134 18.542C164.386 18.8343 164.359 19.2782 164.071 19.5346C163.971 19.6256 162.218 21.1531 158.786 22.052L160.058 23.8277C160.188 24.0097 160.397 24.1172 160.62 24.1172C160.628 24.1172 160.636 24.1172 160.642 24.1172C161.9 24.0758 167.419 23.1328 169.441 19.5263C169.501 19.4188 169.533 19.3002 169.533 19.1762C169.533 12.2251 166.601 4.18488 165.098 2.77867ZM149.011 16.3527C147.666 16.3527 146.577 15.0899 146.577 13.5293C146.577 11.9687 147.666 10.7058 149.011 10.7058C150.357 10.7058 151.446 11.9687 151.446 13.5293C151.446 15.0899 150.357 16.3527 149.011 16.3527ZM158.055 16.3527C156.71 16.3527 155.62 15.0899 155.62 13.5293C155.62 11.9687 156.71 10.7058 158.055 10.7058C159.4 10.7058 160.49 11.9687 160.49 13.5293C160.49 15.0899 159.4 16.3527 158.055 16.3527Z" fill="white"></path>
      <path d="M220.957 4.24219C220.658 2.59277 219.234 1.3916 217.582 1.0166C215.109 0.492187 210.533 0.117188 205.582 0.117188C200.634 0.117188 195.984 0.492187 193.509 1.0166C191.859 1.3916 190.433 2.5166 190.134 4.24219C189.832 6.11719 189.533 8.74219 189.533 12.1172C189.533 15.4922 189.832 18.1172 190.207 19.9922C190.509 21.6416 191.933 22.8428 193.582 23.2178C196.207 23.7422 200.707 24.1172 205.658 24.1172C210.609 24.1172 215.109 23.7422 217.734 23.2178C219.384 22.8428 220.808 21.7178 221.109 19.9922C221.408 18.1172 221.783 15.416 221.859 12.1172C221.707 8.74219 221.332 6.11719 220.957 4.24219ZM201.533 17.3672V6.86719L210.683 12.1172L201.533 17.3672Z" fill="white"></path>
      <path d="M267.742 0.447117C267.292 0.0655162 266.585 0.0109161 265.855 0.304317H265.853C265.085 0.612718 244.097 9.61514 243.242 9.98294C243.087 10.0369 241.73 10.5433 241.869 11.6714C241.994 12.6884 243.085 13.1096 243.218 13.1582L248.554 14.9852C248.908 16.1636 250.213 20.5112 250.502 21.44C250.682 22.019 250.975 22.7798 251.489 22.9364C251.94 23.1104 252.389 22.9514 252.68 22.7234L255.942 19.6976L261.208 23.8046L261.334 23.8796C261.691 24.038 262.034 24.1172 262.361 24.1172C262.613 24.1172 262.856 24.0698 263.087 23.975C263.876 23.651 264.192 22.8992 264.225 22.814L268.159 2.36772C268.399 1.27572 268.065 0.720118 267.742 0.447117ZM253.26 15.716L251.46 20.516L249.66 14.516L263.46 4.31593L253.26 15.716Z" fill="white"></path>
      <path d="M300.24 0.117188C297.058 0.117188 294.005 1.38147 291.755 3.63191C289.505 5.88234 288.24 8.93459 288.24 12.1172C288.24 15.2998 289.505 18.352 291.755 20.6025C294.005 22.8529 297.058 24.1172 300.24 24.1172C303.423 24.1172 306.475 22.8529 308.726 20.6025C310.976 18.352 312.24 15.2998 312.24 12.1172C312.24 8.93459 310.976 5.88234 308.726 3.63191C306.475 1.38147 303.423 0.117188 300.24 0.117188V0.117188ZM319.163 1.04026C315.849 1.04026 313.163 5.99996 313.163 12.1172C313.163 13.2646 313.257 14.3704 313.433 15.4107C313.666 16.7981 314.044 18.0683 314.533 19.163C314.778 19.7104 315.05 20.2135 315.346 20.6649C315.939 21.5676 316.628 22.2646 317.379 22.6966C317.943 23.0196 318.542 23.1941 319.163 23.1941C319.785 23.1941 320.384 23.0196 320.948 22.6966C321.699 22.2646 322.388 21.5676 322.98 20.6649C323.277 20.2135 323.549 19.7104 323.793 19.163C324.283 18.0692 324.66 16.7981 324.894 15.4107C325.069 14.3704 325.163 13.2646 325.163 12.1172C325.163 5.99996 322.477 1.04026 319.163 1.04026ZM328.394 1.96334C328.155 1.96334 327.924 2.12303 327.708 2.42026C327.563 2.6178 327.425 2.87626 327.295 3.18919C327.229 3.34519 327.165 3.51503 327.105 3.6978C326.982 4.06242 326.867 4.47873 326.763 4.9375C326.554 5.85596 326.385 6.95073 326.268 8.1655C326.21 8.77288 326.165 9.41073 326.133 10.0716C326.102 10.7316 326.086 11.4166 326.086 12.1172C326.086 12.8178 326.102 13.5027 326.133 14.1636C326.164 14.8246 326.209 15.4624 326.268 16.0698C326.385 17.2846 326.554 18.3784 326.763 19.2978C326.867 19.7575 326.982 20.1729 327.105 20.5375C327.165 20.7203 327.229 20.8901 327.295 21.0461C327.426 21.359 327.564 21.6175 327.708 21.815C327.924 22.1113 328.155 22.271 328.394 22.271C329.669 22.271 330.702 17.7249 330.702 12.1172C330.702 6.5095 329.669 1.96334 328.394 1.96334Z" fill="white"></path>
      <path d="M366.153 0.117188C364.95 0.117188 363.544 1.06138 363.332 5.2779C363.51 5.27344 363.687 5.26004 363.867 5.26004C364.068 5.26004 364.276 5.27121 364.475 5.2779C364.611 2.74442 365.213 1.26004 366.153 1.26004C366.555 1.26004 366.783 1.47879 367.207 1.93862C367.702 2.47656 368.35 3.17522 369.617 3.43862C369.597 3.28906 369.582 3.12835 369.582 2.97433C369.582 2.73326 369.606 2.50558 369.653 2.2779C368.867 2.06362 368.452 1.61049 368.046 1.17076C367.593 0.679688 367.073 0.117188 366.153 0.117188ZM373.01 0.688616C371.749 0.688616 370.725 1.7154 370.725 2.97433C370.725 4.23326 371.749 5.26004 373.01 5.26004C374.272 5.26004 375.296 4.23326 375.296 2.97433C375.296 1.7154 374.272 0.688616 373.01 0.688616ZM363.867 6.4029C356.934 6.4029 351.296 9.93415 351.296 14.9743C351.296 20.0145 356.934 24.1172 363.867 24.1172C370.801 24.1172 376.439 20.0145 376.439 14.9743C376.439 9.93415 370.801 6.4029 363.867 6.4029ZM353.867 6.93862C353.033 6.93862 352.24 7.28013 351.635 7.88504C350.651 8.86942 350.448 10.2846 351.01 11.4565C351.874 9.7846 353.361 8.35826 355.278 7.29576C354.843 7.07478 354.361 6.93862 353.867 6.93862ZM373.867 6.93862C373.374 6.93862 372.892 7.07478 372.457 7.29576C374.374 8.35826 375.861 9.7846 376.725 11.4565C377.287 10.2846 377.084 8.86942 376.1 7.88504C375.495 7.28013 374.702 6.93862 373.867 6.93862ZM359.296 11.5458C360.242 11.5458 361.01 12.3136 361.01 13.26C361.01 14.2065 360.242 14.9743 359.296 14.9743C358.35 14.9743 357.582 14.2065 357.582 13.26C357.582 12.3136 358.35 11.5458 359.296 11.5458ZM368.439 11.5458C369.385 11.5458 370.153 12.3136 370.153 13.26C370.153 14.2065 369.385 14.9743 368.439 14.9743C367.492 14.9743 366.725 14.2065 366.725 13.26C366.725 12.3136 367.492 11.5458 368.439 11.5458ZM358.76 17.8315C358.903 17.856 359.044 17.9364 359.135 18.0636C359.196 18.1484 360.535 19.9386 363.867 19.9386C367.245 19.9386 368.586 18.0993 368.6 18.0815C368.78 17.8248 369.144 17.7556 369.403 17.9386C369.66 18.1194 369.709 18.4654 369.528 18.7243C369.461 18.8203 367.832 21.0815 363.867 21.0815C359.901 21.0815 358.274 18.8203 358.207 18.7243C358.026 18.4654 358.073 18.1194 358.332 17.9386C358.461 17.8471 358.617 17.8069 358.76 17.8315Z" fill="white"></path> -->
    </svg>