<svg class="frame-22" width="22" height="22" viewBox="0 0 22 22" fill="none" xmlns="http://www.w3.org/2000/svg">
      <path d="M50.998 0.117188C47.139 0.117188 44 3.25914 44 7.11914V17.1191C44 20.9781 47.142 24.1172 51.002 24.1172H61.002C64.861 24.1172 68 20.9752 68 17.1152V7.11523C68 3.25623 64.858 0.117188 60.998 0.117188H50.998ZM63 4.11719C63.552 4.11719 64 4.56519 64 5.11719C64 5.66919 63.552 6.11719 63 6.11719C62.448 6.11719 62 5.66919 62 5.11719C62 4.56519 62.448 4.11719 63 4.11719ZM56 6.11719C59.309 6.11719 62 8.80819 62 12.1172C62 15.4262 59.309 18.1172 56 18.1172C52.691 18.1172 50 15.4262 50 12.1172C50 8.80819 52.691 6.11719 56 6.11719ZM56 8.11719C54.9391 8.11719 53.9217 8.53861 53.1716 9.28876C52.4214 10.0389 52 11.0563 52 12.1172C52 13.1781 52.4214 14.1955 53.1716 14.9456C53.9217 15.6958 54.9391 16.1172 56 16.1172C57.0609 16.1172 58.0783 15.6958 58.8284 14.9456C59.5786 14.1955 60 13.1781 60 12.1172C60 11.0563 59.5786 10.0389 58.8284 9.28876C58.0783 8.53861 57.0609 8.11719 56 8.11719V8.11719Z" fill="white"></path>
    </svg>