<svg width="100" height="60" viewBox="0 0 100 60" fill="none" xmlns="http://www.w3.org/2000/svg">
<path d="M22.25 50C21.9167 50 21.6833 49.85 21.55 49.55L15.3 35.7C15.2333 35.5667 15.1333 35.5 15 35.5H10.35C10.1833 35.5 10.1 35.5833 10.1 35.75V49.4C10.1 49.5667 10.0333 49.7167 9.9 49.85C9.8 49.95 9.66667 50 9.5 50H3.65C3.48333 50 3.33333 49.95 3.2 49.85C3.1 49.7167 3.05 49.5667 3.05 49.4V15.6C3.05 15.4333 3.1 15.3 3.2 15.2C3.33333 15.0667 3.48333 15 3.65 15H17.95C20.0833 15 21.95 15.4333 23.55 16.3C25.1833 17.1667 26.4333 18.4 27.3 20C28.2 21.6 28.65 23.45 28.65 25.55C28.65 27.8167 28.0833 29.7667 26.95 31.4C25.8167 33 24.2333 34.1333 22.2 34.8C22.0333 34.8667 21.9833 34.9833 22.05 35.15L28.85 49.3C28.9167 49.4333 28.95 49.5333 28.95 49.6C28.95 49.8667 28.7667 50 28.4 50H22.25ZM10.35 21.05C10.1833 21.05 10.1 21.1333 10.1 21.3V29.85C10.1 30.0167 10.1833 30.1 10.35 30.1H16.9C18.3 30.1 19.4333 29.6833 20.3 28.85C21.2 28.0167 21.65 26.9333 21.65 25.6C21.65 24.2667 21.2 23.1833 20.3 22.35C19.4333 21.4833 18.3 21.05 16.9 21.05H10.35ZM46.2129 50.55C43.6129 50.55 41.3129 50.0167 39.3129 48.95C37.3462 47.8833 35.8129 46.4 34.7129 44.5C33.6129 42.5667 33.0629 40.35 33.0629 37.85V27.15C33.0629 24.6833 33.6129 22.5 34.7129 20.6C35.8129 18.7 37.3462 17.2333 39.3129 16.2C41.3129 15.1333 43.6129 14.6 46.2129 14.6C48.8462 14.6 51.1462 15.1333 53.1129 16.2C55.1129 17.2333 56.6629 18.7 57.7629 20.6C58.8629 22.5 59.4129 24.6833 59.4129 27.15V37.85C59.4129 40.35 58.8629 42.5667 57.7629 44.5C56.6629 46.4333 55.1129 47.9333 53.1129 49C51.1462 50.0333 48.8462 50.55 46.2129 50.55ZM46.2129 44.5C48.0462 44.5 49.5296 43.9167 50.6629 42.75C51.7962 41.5833 52.3629 40.0333 52.3629 38.1V27.1C52.3629 25.1667 51.7962 23.6167 50.6629 22.45C49.5629 21.25 48.0796 20.65 46.2129 20.65C44.3796 20.65 42.8962 21.25 41.7629 22.45C40.6629 23.6167 40.1129 25.1667 40.1129 27.1V38.1C40.1129 40.0333 40.6629 41.5833 41.7629 42.75C42.8962 43.9167 44.3796 44.5 46.2129 44.5ZM65.4176 50C65.2509 50 65.1009 49.95 64.9676 49.85C64.8676 49.7167 64.8176 49.5667 64.8176 49.4V15.6C64.8176 15.4333 64.8676 15.3 64.9676 15.2C65.1009 15.0667 65.2509 15 65.4176 15H71.2676C71.4342 15 71.5676 15.0667 71.6676 15.2C71.8009 15.3 71.8676 15.4333 71.8676 15.6V49.4C71.8676 49.5667 71.8009 49.7167 71.6676 49.85C71.5676 49.95 71.4342 50 71.2676 50H65.4176ZM87.7523 50.35C85.519 50.35 83.569 50.0333 81.9023 49.4C80.2357 48.7667 78.9357 47.8833 78.0023 46.75C77.1023 45.6167 76.6523 44.3333 76.6523 42.9V42.4C76.6523 42.2333 76.7023 42.1 76.8023 42C76.9357 41.8667 77.0857 41.8 77.2523 41.8H82.8023C82.969 41.8 83.1023 41.8667 83.2023 42C83.3357 42.1 83.4023 42.2333 83.4023 42.4V42.45C83.4023 43.1833 83.8023 43.8167 84.6023 44.35C85.4357 44.85 86.469 45.1 87.7023 45.1C88.8357 45.1 89.7523 44.8833 90.4523 44.45C91.1523 43.9833 91.5023 43.4167 91.5023 42.75C91.5023 42.15 91.2023 41.7 90.6023 41.4C90.0023 41.1 89.019 40.7833 87.6523 40.45C86.0857 40.05 84.8523 39.6667 83.9523 39.3C81.819 38.5667 80.119 37.6667 78.8523 36.6C77.5857 35.5333 76.9523 34 76.9523 32C76.9523 29.5333 77.9023 27.5833 79.8023 26.15C81.7357 24.6833 84.2857 23.95 87.4523 23.95C89.5857 23.95 91.4523 24.3 93.0523 25C94.6523 25.6667 95.8857 26.6167 96.7523 27.85C97.6523 29.0833 98.1023 30.4833 98.1023 32.05C98.1023 32.2167 98.0357 32.3667 97.9023 32.5C97.8023 32.6 97.669 32.65 97.5023 32.65H92.1523C91.9857 32.65 91.8357 32.6 91.7023 32.5C91.6023 32.3667 91.5523 32.2167 91.5523 32.05C91.5523 31.3167 91.169 30.7 90.4023 30.2C89.669 29.7 88.6857 29.45 87.4523 29.45C86.3523 29.45 85.4523 29.65 84.7523 30.05C84.0523 30.45 83.7023 31 83.7023 31.7C83.7023 32.3667 84.0357 32.8667 84.7023 33.2C85.4023 33.5333 86.5523 33.8833 88.1523 34.25C88.519 34.35 88.9357 34.4667 89.4023 34.6C89.869 34.7 90.369 34.8333 90.9023 35C93.269 35.7 95.1357 36.6 96.5023 37.7C97.869 38.8 98.5523 40.4 98.5523 42.5C98.5523 44.9667 97.569 46.9 95.6023 48.3C93.669 49.6667 91.0523 50.35 87.7523 50.35Z" fill="white"/>
</svg>
