<svg class="frame-22" width="22" height="22" viewBox="0 0 22 22" fill="none" xmlns="http://www.w3.org/2000/svg">
      <path d="M267.742 0.447117C267.292 0.0655162 266.585 0.0109161 265.855 0.304317H265.853C265.085 0.612718 244.097 9.61514 243.242 9.98294C243.087 10.0369 241.73 10.5433 241.869 11.6714C241.994 12.6884 243.085 13.1096 243.218 13.1582L248.554 14.9852C248.908 16.1636 250.213 20.5112 250.502 21.44C250.682 22.019 250.975 22.7798 251.489 22.9364C251.94 23.1104 252.389 22.9514 252.68 22.7234L255.942 19.6976L261.208 23.8046L261.334 23.8796C261.691 24.038 262.034 24.1172 262.361 24.1172C262.613 24.1172 262.856 24.0698 263.087 23.975C263.876 23.651 264.192 22.8992 264.225 22.814L268.159 2.36772C268.399 1.27572 268.065 0.720118 267.742 0.447117ZM253.26 15.716L251.46 20.516L249.66 14.516L263.46 4.31593L253.26 15.716Z" fill="white"></path>
    </svg>