<svg class="frame-22" width="22" height="22" viewBox="0 0 22 22" fill="none" xmlns="http://www.w3.org/2000/svg">
      <path d="M117.533 2.95751C116.445 3.44087 115.278 3.76541 114.051 3.91272C115.303 3.16236 116.265 1.97467 116.716 0.561419C115.547 1.25424 114.246 1.75831 112.868 2.02991C111.763 0.851435 110.189 0.117188 108.446 0.117188C105.099 0.117188 102.386 2.82861 102.386 6.17531C102.386 6.64946 102.441 7.1121 102.545 7.55634C97.5084 7.30315 93.0454 4.89095 90.0554 1.22431C89.5329 2.12198 89.236 3.16236 89.236 4.27179C89.236 6.37325 90.304 8.22844 91.9313 9.31715C90.937 9.28492 90.0025 9.01102 89.1854 8.55758C89.1854 8.5829 89.1854 8.60822 89.1854 8.63354C89.1854 11.5705 91.2753 14.0173 94.0443 14.5766C93.5379 14.7147 93.0016 14.7883 92.4492 14.7883C92.0579 14.7883 91.6781 14.7515 91.3076 14.6778C92.0809 17.0831 94.3182 18.8394 96.9675 18.8877C94.8959 20.5127 92.2835 21.4794 89.4432 21.4794C88.9529 21.4794 88.4719 21.4518 88 21.3943C90.6792 23.1159 93.8648 24.1172 97.2874 24.1172C108.432 24.1172 114.527 14.885 114.527 6.87963C114.527 6.61724 114.52 6.35254 114.511 6.09475C115.694 5.24081 116.721 4.17281 117.533 2.95751Z" fill="white"></path>
    </svg>