<svg class="frame-22" width="22" height="22" viewBox="0 0 22 22" fill="none" xmlns="http://www.w3.org/2000/svg">
      <path d="M366.153 0.117188C364.95 0.117188 363.544 1.06138 363.332 5.2779C363.51 5.27344 363.687 5.26004 363.867 5.26004C364.068 5.26004 364.276 5.27121 364.475 5.2779C364.611 2.74442 365.213 1.26004 366.153 1.26004C366.555 1.26004 366.783 1.47879 367.207 1.93862C367.702 2.47656 368.35 3.17522 369.617 3.43862C369.597 3.28906 369.582 3.12835 369.582 2.97433C369.582 2.73326 369.606 2.50558 369.653 2.2779C368.867 2.06362 368.452 1.61049 368.046 1.17076C367.593 0.679688 367.073 0.117188 366.153 0.117188ZM373.01 0.688616C371.749 0.688616 370.725 1.7154 370.725 2.97433C370.725 4.23326 371.749 5.26004 373.01 5.26004C374.272 5.26004 375.296 4.23326 375.296 2.97433C375.296 1.7154 374.272 0.688616 373.01 0.688616ZM363.867 6.4029C356.934 6.4029 351.296 9.93415 351.296 14.9743C351.296 20.0145 356.934 24.1172 363.867 24.1172C370.801 24.1172 376.439 20.0145 376.439 14.9743C376.439 9.93415 370.801 6.4029 363.867 6.4029ZM353.867 6.93862C353.033 6.93862 352.24 7.28013 351.635 7.88504C350.651 8.86942 350.448 10.2846 351.01 11.4565C351.874 9.7846 353.361 8.35826 355.278 7.29576C354.843 7.07478 354.361 6.93862 353.867 6.93862ZM373.867 6.93862C373.374 6.93862 372.892 7.07478 372.457 7.29576C374.374 8.35826 375.861 9.7846 376.725 11.4565C377.287 10.2846 377.084 8.86942 376.1 7.88504C375.495 7.28013 374.702 6.93862 373.867 6.93862ZM359.296 11.5458C360.242 11.5458 361.01 12.3136 361.01 13.26C361.01 14.2065 360.242 14.9743 359.296 14.9743C358.35 14.9743 357.582 14.2065 357.582 13.26C357.582 12.3136 358.35 11.5458 359.296 11.5458ZM368.439 11.5458C369.385 11.5458 370.153 12.3136 370.153 13.26C370.153 14.2065 369.385 14.9743 368.439 14.9743C367.492 14.9743 366.725 14.2065 366.725 13.26C366.725 12.3136 367.492 11.5458 368.439 11.5458ZM358.76 17.8315C358.903 17.856 359.044 17.9364 359.135 18.0636C359.196 18.1484 360.535 19.9386 363.867 19.9386C367.245 19.9386 368.586 18.0993 368.6 18.0815C368.78 17.8248 369.144 17.7556 369.403 17.9386C369.66 18.1194 369.709 18.4654 369.528 18.7243C369.461 18.8203 367.832 21.0815 363.867 21.0815C359.901 21.0815 358.274 18.8203 358.207 18.7243C358.026 18.4654 358.073 18.1194 358.332 17.9386C358.461 17.8471 358.617 17.8069 358.76 17.8315Z" fill="white"></path>
    </svg>