<svg class="frame-22" width="22" height="22" viewBox="0 0 22 22" fill="none" xmlns="http://www.w3.org/2000/svg">
      <path d="M300.24 0.117188C297.058 0.117188 294.005 1.38147 291.755 3.63191C289.505 5.88234 288.24 8.93459 288.24 12.1172C288.24 15.2998 289.505 18.352 291.755 20.6025C294.005 22.8529 297.058 24.1172 300.24 24.1172C303.423 24.1172 306.475 22.8529 308.726 20.6025C310.976 18.352 312.24 15.2998 312.24 12.1172C312.24 8.93459 310.976 5.88234 308.726 3.63191C306.475 1.38147 303.423 0.117188 300.24 0.117188V0.117188ZM319.163 1.04026C315.849 1.04026 313.163 5.99996 313.163 12.1172C313.163 13.2646 313.257 14.3704 313.433 15.4107C313.666 16.7981 314.044 18.0683 314.533 19.163C314.778 19.7104 315.05 20.2135 315.346 20.6649C315.939 21.5676 316.628 22.2646 317.379 22.6966C317.943 23.0196 318.542 23.1941 319.163 23.1941C319.785 23.1941 320.384 23.0196 320.948 22.6966C321.699 22.2646 322.388 21.5676 322.98 20.6649C323.277 20.2135 323.549 19.7104 323.793 19.163C324.283 18.0692 324.66 16.7981 324.894 15.4107C325.069 14.3704 325.163 13.2646 325.163 12.1172C325.163 5.99996 322.477 1.04026 319.163 1.04026ZM328.394 1.96334C328.155 1.96334 327.924 2.12303 327.708 2.42026C327.563 2.6178 327.425 2.87626 327.295 3.18919C327.229 3.34519 327.165 3.51503 327.105 3.6978C326.982 4.06242 326.867 4.47873 326.763 4.9375C326.554 5.85596 326.385 6.95073 326.268 8.1655C326.21 8.77288 326.165 9.41073 326.133 10.0716C326.102 10.7316 326.086 11.4166 326.086 12.1172C326.086 12.8178 326.102 13.5027 326.133 14.1636C326.164 14.8246 326.209 15.4624 326.268 16.0698C326.385 17.2846 326.554 18.3784 326.763 19.2978C326.867 19.7575 326.982 20.1729 327.105 20.5375C327.165 20.7203 327.229 20.8901 327.295 21.0461C327.426 21.359 327.564 21.6175 327.708 21.815C327.924 22.1113 328.155 22.271 328.394 22.271C329.669 22.271 330.702 17.7249 330.702 12.1172C330.702 6.5095 329.669 1.96334 328.394 1.96334Z" fill="white"></path>
    </svg>