<svg class="frame-22" width="22" height="22" viewBox="0 0 22 22" fill="none" xmlns="http://www.w3.org/2000/svg">
      <path d="M220.957 4.24219C220.658 2.59277 219.234 1.3916 217.582 1.0166C215.109 0.492187 210.533 0.117188 205.582 0.117188C200.634 0.117188 195.984 0.492187 193.509 1.0166C191.859 1.3916 190.433 2.5166 190.134 4.24219C189.832 6.11719 189.533 8.74219 189.533 12.1172C189.533 15.4922 189.832 18.1172 190.207 19.9922C190.509 21.6416 191.933 22.8428 193.582 23.2178C196.207 23.7422 200.707 24.1172 205.658 24.1172C210.609 24.1172 215.109 23.7422 217.734 23.2178C219.384 22.8428 220.808 21.7178 221.109 19.9922C221.408 18.1172 221.783 15.416 221.859 12.1172C221.707 8.74219 221.332 6.11719 220.957 4.24219ZM201.533 17.3672V6.86719L210.683 12.1172L201.533 17.3672Z" fill="white"></path>
    </svg>